<mxfile host="app.diagrams.net" modified="2021-11-06T06:21:32.768Z" agent="5.0 (Windows NT 10.0; Win64; x64) AppleWebKit/537.36 (KHTML, like Gecko) Chrome/95.0.4638.69 Safari/537.36" etag="5vvn5GCgyney6ldJ_szM" version="15.7.0" type="github">
  <diagram id="IFNw_7S8C56MGrGhWhJK" name="prafabxml">
    <mxGraphModel dx="780" dy="1112" grid="1" gridSize="10" guides="1" tooltips="1" connect="1" arrows="1" fold="1" page="1" pageScale="1" pageWidth="827" pageHeight="1169" math="0" shadow="0">
      <root>
        <mxCell id="0" />
        <mxCell id="1" parent="0" />
        <mxCell id="zGqolQsWGa_0U8bYMejL-1" value="" style="rounded=0;whiteSpace=wrap;html=1;fillColor=#fff2cc;strokeColor=#d6b656;" vertex="1" parent="1">
          <mxGeometry x="270" y="300" width="360" height="300" as="geometry" />
        </mxCell>
        <mxCell id="zGqolQsWGa_0U8bYMejL-3" value="Prefab" style="text;html=1;strokeColor=none;fillColor=none;align=center;verticalAlign=middle;whiteSpace=wrap;rounded=0;" vertex="1" parent="1">
          <mxGeometry x="280" y="310" width="60" height="30" as="geometry" />
        </mxCell>
        <mxCell id="zGqolQsWGa_0U8bYMejL-4" value="" style="rounded=1;whiteSpace=wrap;html=1;" vertex="1" parent="1">
          <mxGeometry x="310" y="410" width="140" height="70" as="geometry" />
        </mxCell>
        <mxCell id="zGqolQsWGa_0U8bYMejL-5" value="prafab" style="text;html=1;strokeColor=none;fillColor=none;align=center;verticalAlign=middle;whiteSpace=wrap;rounded=0;" vertex="1" parent="1">
          <mxGeometry x="320" y="410" width="60" height="30" as="geometry" />
        </mxCell>
        <mxCell id="zGqolQsWGa_0U8bYMejL-6" value="" style="rounded=1;whiteSpace=wrap;html=1;" vertex="1" parent="1">
          <mxGeometry x="379" y="410" width="70" height="30" as="geometry" />
        </mxCell>
        <mxCell id="zGqolQsWGa_0U8bYMejL-7" value="prafab" style="text;html=1;strokeColor=none;fillColor=none;align=center;verticalAlign=middle;whiteSpace=wrap;rounded=0;" vertex="1" parent="1">
          <mxGeometry x="384" y="410" width="45" height="20" as="geometry" />
        </mxCell>
        <mxCell id="zGqolQsWGa_0U8bYMejL-8" value="" style="rounded=1;whiteSpace=wrap;html=1;" vertex="1" parent="1">
          <mxGeometry x="379" y="450" width="70" height="30" as="geometry" />
        </mxCell>
        <mxCell id="zGqolQsWGa_0U8bYMejL-9" value="prafab" style="text;html=1;strokeColor=none;fillColor=none;align=center;verticalAlign=middle;whiteSpace=wrap;rounded=0;" vertex="1" parent="1">
          <mxGeometry x="384" y="450" width="45" height="20" as="geometry" />
        </mxCell>
        <mxCell id="zGqolQsWGa_0U8bYMejL-10" value="" style="rounded=1;whiteSpace=wrap;html=1;" vertex="1" parent="1">
          <mxGeometry x="309" y="515" width="140" height="70" as="geometry" />
        </mxCell>
        <mxCell id="zGqolQsWGa_0U8bYMejL-11" value="prafab" style="text;html=1;strokeColor=none;fillColor=none;align=center;verticalAlign=middle;whiteSpace=wrap;rounded=0;" vertex="1" parent="1">
          <mxGeometry x="319" y="515" width="60" height="30" as="geometry" />
        </mxCell>
        <mxCell id="zGqolQsWGa_0U8bYMejL-12" value="" style="rounded=1;whiteSpace=wrap;html=1;" vertex="1" parent="1">
          <mxGeometry x="378" y="515" width="70" height="30" as="geometry" />
        </mxCell>
        <mxCell id="zGqolQsWGa_0U8bYMejL-13" value="prafab" style="text;html=1;strokeColor=none;fillColor=none;align=center;verticalAlign=middle;whiteSpace=wrap;rounded=0;" vertex="1" parent="1">
          <mxGeometry x="383" y="515" width="45" height="20" as="geometry" />
        </mxCell>
        <mxCell id="zGqolQsWGa_0U8bYMejL-14" value="" style="rounded=1;whiteSpace=wrap;html=1;" vertex="1" parent="1">
          <mxGeometry x="378" y="555" width="70" height="30" as="geometry" />
        </mxCell>
        <mxCell id="zGqolQsWGa_0U8bYMejL-15" value="prafab" style="text;html=1;strokeColor=none;fillColor=none;align=center;verticalAlign=middle;whiteSpace=wrap;rounded=0;" vertex="1" parent="1">
          <mxGeometry x="383" y="555" width="45" height="20" as="geometry" />
        </mxCell>
        <mxCell id="zGqolQsWGa_0U8bYMejL-16" value="" style="rounded=1;whiteSpace=wrap;html=1;" vertex="1" parent="1">
          <mxGeometry x="470" y="515" width="140" height="70" as="geometry" />
        </mxCell>
        <mxCell id="zGqolQsWGa_0U8bYMejL-17" value="prafab" style="text;html=1;strokeColor=none;fillColor=none;align=center;verticalAlign=middle;whiteSpace=wrap;rounded=0;" vertex="1" parent="1">
          <mxGeometry x="480" y="515" width="60" height="30" as="geometry" />
        </mxCell>
        <mxCell id="zGqolQsWGa_0U8bYMejL-18" value="" style="rounded=1;whiteSpace=wrap;html=1;" vertex="1" parent="1">
          <mxGeometry x="539" y="515" width="70" height="30" as="geometry" />
        </mxCell>
        <mxCell id="zGqolQsWGa_0U8bYMejL-19" value="prafab" style="text;html=1;strokeColor=none;fillColor=none;align=center;verticalAlign=middle;whiteSpace=wrap;rounded=0;" vertex="1" parent="1">
          <mxGeometry x="544" y="515" width="45" height="20" as="geometry" />
        </mxCell>
        <mxCell id="zGqolQsWGa_0U8bYMejL-20" value="" style="rounded=1;whiteSpace=wrap;html=1;" vertex="1" parent="1">
          <mxGeometry x="539" y="555" width="70" height="30" as="geometry" />
        </mxCell>
        <mxCell id="zGqolQsWGa_0U8bYMejL-21" value="prafab" style="text;html=1;strokeColor=none;fillColor=none;align=center;verticalAlign=middle;whiteSpace=wrap;rounded=0;" vertex="1" parent="1">
          <mxGeometry x="544" y="555" width="45" height="20" as="geometry" />
        </mxCell>
        <mxCell id="zGqolQsWGa_0U8bYMejL-22" value="" style="rounded=1;whiteSpace=wrap;html=1;" vertex="1" parent="1">
          <mxGeometry x="460" y="430" width="140" height="70" as="geometry" />
        </mxCell>
        <mxCell id="zGqolQsWGa_0U8bYMejL-23" value="prafab" style="text;html=1;strokeColor=none;fillColor=none;align=center;verticalAlign=middle;whiteSpace=wrap;rounded=0;" vertex="1" parent="1">
          <mxGeometry x="470" y="430" width="60" height="30" as="geometry" />
        </mxCell>
        <mxCell id="zGqolQsWGa_0U8bYMejL-24" value="" style="rounded=1;whiteSpace=wrap;html=1;" vertex="1" parent="1">
          <mxGeometry x="529" y="430" width="70" height="30" as="geometry" />
        </mxCell>
        <mxCell id="zGqolQsWGa_0U8bYMejL-25" value="prafab" style="text;html=1;strokeColor=none;fillColor=none;align=center;verticalAlign=middle;whiteSpace=wrap;rounded=0;" vertex="1" parent="1">
          <mxGeometry x="534" y="430" width="45" height="20" as="geometry" />
        </mxCell>
        <mxCell id="zGqolQsWGa_0U8bYMejL-26" value="" style="rounded=1;whiteSpace=wrap;html=1;" vertex="1" parent="1">
          <mxGeometry x="529" y="470" width="70" height="30" as="geometry" />
        </mxCell>
        <mxCell id="zGqolQsWGa_0U8bYMejL-27" value="prafab" style="text;html=1;strokeColor=none;fillColor=none;align=center;verticalAlign=middle;whiteSpace=wrap;rounded=0;" vertex="1" parent="1">
          <mxGeometry x="534" y="470" width="45" height="20" as="geometry" />
        </mxCell>
        <mxCell id="zGqolQsWGa_0U8bYMejL-28" value="prafab" style="text;html=1;strokeColor=none;fillColor=none;align=center;verticalAlign=middle;whiteSpace=wrap;rounded=0;" vertex="1" parent="1">
          <mxGeometry x="384" y="410" width="45" height="20" as="geometry" />
        </mxCell>
        <mxCell id="zGqolQsWGa_0U8bYMejL-29" value="" style="rounded=1;whiteSpace=wrap;html=1;" vertex="1" parent="1">
          <mxGeometry x="310" y="535" width="70" height="30" as="geometry" />
        </mxCell>
        <mxCell id="zGqolQsWGa_0U8bYMejL-30" value="prafab" style="text;html=1;strokeColor=none;fillColor=none;align=center;verticalAlign=middle;whiteSpace=wrap;rounded=0;" vertex="1" parent="1">
          <mxGeometry x="315" y="535" width="45" height="20" as="geometry" />
        </mxCell>
        <mxCell id="zGqolQsWGa_0U8bYMejL-31" value="" style="rounded=1;whiteSpace=wrap;html=1;" vertex="1" parent="1">
          <mxGeometry x="475" y="380" width="70" height="30" as="geometry" />
        </mxCell>
        <mxCell id="zGqolQsWGa_0U8bYMejL-32" value="prafab" style="text;html=1;strokeColor=none;fillColor=none;align=center;verticalAlign=middle;whiteSpace=wrap;rounded=0;" vertex="1" parent="1">
          <mxGeometry x="480" y="380" width="45" height="20" as="geometry" />
        </mxCell>
        <mxCell id="zGqolQsWGa_0U8bYMejL-33" value="" style="rounded=1;whiteSpace=wrap;html=1;" vertex="1" parent="1">
          <mxGeometry x="475" y="320" width="70" height="30" as="geometry" />
        </mxCell>
        <mxCell id="zGqolQsWGa_0U8bYMejL-34" value="prafab" style="text;html=1;strokeColor=none;fillColor=none;align=center;verticalAlign=middle;whiteSpace=wrap;rounded=0;" vertex="1" parent="1">
          <mxGeometry x="480" y="320" width="45" height="20" as="geometry" />
        </mxCell>
      </root>
    </mxGraphModel>
  </diagram>
</mxfile>
